<svg width="17" height="18" viewBox="0 0 17 18" fill="none" xmlns="http://www.w3.org/2000/svg">
<path d="M0 16.395V6.79061C0 6.50773 0.069619 6.23996 0.208857 5.98729C0.348095 5.73462 0.539952 5.52652 0.784428 5.36298L7.32336 0.856907C7.66579 0.618969 8.05679 0.5 8.49636 0.5C8.93593 0.5 9.32936 0.618969 9.67664 0.856907L16.2156 5.36188C16.4609 5.52541 16.6527 5.73389 16.7911 5.98729C16.9304 6.23996 17 6.50773 17 6.79061V16.395C17 16.6912 16.879 16.9494 16.6369 17.1696C16.3949 17.3899 16.1111 17.5 15.7857 17.5H11.6766C11.3981 17.5 11.165 17.4145 10.9771 17.2436C10.7893 17.072 10.6954 16.8599 10.6954 16.6072V11.3376C10.6954 11.0849 10.6015 10.8731 10.4137 10.7022C10.2251 10.5306 9.99195 10.4448 9.71429 10.4448H7.28571C7.00805 10.4448 6.77531 10.5306 6.5875 10.7022C6.39888 10.8731 6.30457 11.0849 6.30457 11.3376V16.6083C6.30457 16.861 6.21067 17.0727 6.02286 17.2436C5.83505 17.4145 5.60231 17.5 5.32464 17.5H1.21429C0.888857 17.5 0.605119 17.3899 0.363071 17.1696C0.121024 16.9494 0 16.6912 0 16.395Z" fill="#454545"/>
</svg>
